# xmcd
#
# Track frame offsets: 
#        150
#        20880
#        41090
#        65575
#        89555
#        112667
#        132102
#        155972
#        186920
#        210552
#        236627
#
# Disc length: 3451 seconds
#
# Revision: 0
# Processed by: cddbd v1.5.2PL0 Copyright (c) Steve Scherf et al.
# Submitted via: ExactAudioCopy v1.0b3
#
DISCID=9e0d790b
DTITLE=Tuan Vu - Mua Xuan Cua Me
DYEAR=1996
DGENRE=
TTITLE0=Tam su nang Xuan
TTITLE1=Dau Xuan linh chuc
TTITLE2=Mua Xuan la kho
TTITLE3=Tuan Vu, Thao Suong - Chuyen buon ngay Xuan
TTITLE4=Toi chua co mua Xuan
TTITLE5=Xuan mien Nam
TTITLE6=Xuan nay con khong ve
TTITLE7=LK Mung Xuan
TTITLE8=Tuan Vu, Thao Suong - Cam on
TTITLE9=Mua Xuan cua Me
TTITLE10=Tuan Vu, Quoc Si, Hoang Lan - Quang cao, Con thuong rau dang 
TTITLE10=moc sau he
EXTD=
EXTT0=
EXTT1=
EXTT2=
EXTT3=
EXTT4=
EXTT5=
EXTT6=
EXTT7=
EXTT8=
EXTT9=
EXTT10=
PLAYORDER=
